<?xml version="1.0" encoding="UTF-8"?>
<!-- Generator: Adobe Illustrator 18.0.0, SVG Export Plug-In . SVG Version: 6.00 Build 0)  -->
<!DOCTYPE svg PUBLIC "-//W3C//DTD SVG 1.1//EN" "http://www.w3.org/Graphics/SVG/1.1/DTD/svg11.dtd">
<svg xmlns="http://www.w3.org/2000/svg" xmlns:xlink="http://www.w3.org/1999/xlink" xmlns:dc="http://purl.org/dc/elements/1.1/" xmlns:cc="http://creativecommons.org/ns#" xmlns:rdf="http://www.w3.org/1999/02/22-rdf-syntax-ns#" version="1.1" id="DESIGNS" x="0px" y="0px" width="32px" height="32px" viewBox="0 0 32 32" style="enable-background:new 0 0 32 32;" xml:space="preserve">
<title property="dc:title">to speak</title><desc property="dc:description">An icon for "speak" from the Blueprint series on to [icon]. Downloaded from http://www.toicon.com/icons/blueprint_speak by 70.94.244.12 on 2015-08-08. Licensed CC-BY, see http://toicon.com/license/ for details.</desc><path style="fill:#0B1719;" d="M24,11H8v-1h16V11z M24,13H8v1h16V13z M24,16H8v1h16V16z M32,3v22c0,0.552-0.448,1-1,1H20  l-3.293,3.293c-0.195,0.195-0.451,0.293-0.707,0.293s-0.512-0.098-0.707-0.293L12,26H1c-0.552,0-1-0.448-1-1V3c0-0.552,0.448-1,1-1  h30C31.552,2,32,2.448,32,3z M30,4H2v20h10.828L16,27.172L19.172,24H30V4z"/>
<metadata><work rdf:about=""><format>image/svg+xml</format><type rdf:resource="http://purl.org/dc/dcmitype/StillImage"/><license rdf:resource="http://creativecommons.org/licenses/by/4.0/"/><attributionname>Shannon E Thomas</attributionname><attributionurl>http://www.toicon.com/icons/blueprint_speak</attributionurl></work></metadata></svg>
